<svg width="57" height="56" viewBox="0 0 57 56" fill="none" xmlns="http://www.w3.org/2000/svg">
<path d="M11.6404 26.2405L27.008 10.8729L51.4096 35.2745L36.042 50.642L11.6404 26.2405Z" fill="white"/>
<path d="M2.34791 53.8586C2.788 54.2987 3.37818 54.4851 3.94772 54.4229C3.94772 54.4229 14.6957 54.4851 20.8049 48.6243C20.8825 48.5571 20.955 48.4846 21.0274 48.4121C23.2432 46.1962 23.238 42.6083 21.0274 40.3977C18.8166 38.1869 15.2288 38.1819 13.013 40.3977L2.34791 51.0628C1.5765 51.8343 1.5765 53.0871 2.34791 53.8586V53.8586Z" fill="white"/>
<path d="M12.2091 49.3203C12.354 50.2983 11.7744 51.711 10.6274 52.9184C10.2773 53.2806 9.91504 53.5945 9.54074 53.836" fill="white"/>
<path d="M7.16213 52.5078C7.06554 53.2081 6.72747 53.848 6.19621 54.3068Z" fill="white"/>
<path d="M29.025 16.4521C30.1227 15.3544 30.1227 13.5747 29.025 12.477C27.9273 11.3793 26.1476 11.3793 25.0499 12.477C23.9522 13.5747 23.9522 15.3544 25.0499 16.4521C26.1476 17.5498 27.9273 17.5498 29.025 16.4521Z" fill="#2FC18C"/>
<path d="M50.3337 37.232C51.4314 36.1343 51.4314 34.3546 50.3338 33.2569C49.2361 32.1592 47.4564 32.1592 46.3587 33.2569C45.261 34.3546 45.261 36.1343 46.3587 37.232C47.4564 38.3297 49.2361 38.3297 50.3337 37.232Z" fill="#2FC18C"/>
<path d="M16.819 28.6578C17.9167 27.5601 17.9167 25.7804 16.819 24.6827C15.7213 23.585 13.9416 23.585 12.8439 24.6827C11.7462 25.7804 11.7462 27.5601 12.8439 28.6578C13.9416 29.7555 15.7213 29.7555 16.819 28.6578Z" fill="#2FC18C"/>
<path d="M37.6594 49.4984C38.7571 48.4007 38.7571 46.621 37.6594 45.5233C36.5617 44.4256 34.782 44.4256 33.6844 45.5233C32.5867 46.621 32.5867 48.4007 33.6843 49.4984C34.782 50.596 36.5617 50.596 37.6594 49.4984Z" fill="#2FC18C"/>
<path d="M50.6522 34.6972L49.2264 36.1229L25.8941 12.7906L27.3198 11.3648L50.6522 34.6972Z" fill="#2FC18C"/>
<path d="M36.4714 48.3092L35.0456 49.7349L11.7133 26.4026L13.1391 24.9768L36.4714 48.3092Z" fill="#2FC18C"/>
<path d="M27.3321 10.7825L28.7745 12.2249L13.155 27.8444L11.7126 26.4019L27.3321 10.7825Z" fill="#2FC18C"/>
<path d="M50.0703 33.5203L51.5127 34.9627L35.8932 50.5822L34.4508 49.1398L50.0703 33.5203Z" fill="#2FC18C"/>
<path d="M39.3927 38.4637C42.1 35.7564 40.7487 30.0156 36.3745 25.6413C32.0002 21.2671 26.2595 19.9158 23.5521 22.6231C20.8448 25.3305 22.1961 31.0713 26.5703 35.4455C30.9446 39.8198 36.6853 41.1711 39.3927 38.4637Z" fill="#2FC18C"/>
<path d="M43.6645 27.4683L28.1253 43.0075C28.0694 43.0633 28.0079 43.1035 27.9409 43.1382C27.6678 43.2715 27.3163 43.2147 27.0799 42.9785L18.8384 34.7369C18.6019 34.5005 18.5451 34.149 18.6786 33.8759C18.7133 33.809 18.7535 33.7474 18.8094 33.6916L34.3484 18.1523C34.4043 18.0964 34.4659 18.0563 34.5328 18.0216C34.8059 17.8882 35.1574 17.945 35.3938 18.1813L43.6353 26.4228C43.8717 26.6592 43.9286 27.0107 43.7951 27.2838C43.7604 27.3509 43.7204 27.4124 43.6645 27.4683Z" fill="#2FC18C"/>
<path fill-rule="evenodd" clip-rule="evenodd" d="M18.8094 33.6916C18.7535 33.7474 18.7133 33.809 18.6786 33.8759C18.5451 34.149 18.6019 34.5005 18.8384 34.7369L27.0799 42.9785C27.3163 43.2147 27.6678 43.2715 27.9409 43.1382C28.0079 43.1035 28.0694 43.0633 28.1253 43.0075L43.6645 27.4683C43.7204 27.4124 43.7604 27.3509 43.7951 27.2838C43.9286 27.0107 43.8717 26.6592 43.6353 26.4228L35.3938 18.1813C35.1574 17.945 34.8059 17.8882 34.5328 18.0216C34.4659 18.0563 34.4043 18.0964 34.3484 18.1523L18.8094 33.6916ZM34.8566 20.4223L21.0794 34.1997L27.6171 40.7374L41.3944 26.9601L34.8566 20.4223Z" fill="#036B52"/>
<path d="M54.5155 1.69097C54.9556 2.13107 55.142 2.72125 55.0798 3.29078C55.0798 3.29078 55.142 14.0387 49.2813 20.1479C49.214 20.2256 49.1415 20.298 49.069 20.3706C46.8532 22.5864 43.2653 22.5812 41.0546 20.3706C38.8439 18.1598 38.8388 14.572 41.0546 12.3562L51.7197 1.69109C52.4913 0.919559 53.7441 0.919559 54.5155 1.69097V1.69097Z" fill="white"/>
<path d="M49.9771 11.5523C50.9551 11.6971 52.3678 11.1176 53.5752 9.97056C53.9374 9.62041 54.2513 9.25819 54.4928 8.8839" fill="white"/>
<path d="M53.1646 6.50528C53.8649 6.40869 54.5049 6.07062 54.9637 5.53936Z" fill="white"/>
<path fill-rule="evenodd" clip-rule="evenodd" d="M12.244 39.6287C14.8852 36.9875 19.1616 36.9938 21.7964 39.6287C24.4312 42.2634 24.4376 46.5399 21.7964 49.1811L21.7905 49.187C21.7271 49.2506 21.6389 49.3389 21.5395 49.4266C18.271 52.552 13.8318 54.0537 10.3066 54.7862C8.52639 55.1562 6.94487 55.3369 5.80682 55.4253C5.23714 55.4696 4.77679 55.4909 4.45612 55.5012C4.29573 55.5063 4.17015 55.5086 4.08314 55.5097C4.05034 55.5101 4.02301 55.5103 4.00137 55.5104C3.13701 55.5863 2.24462 55.2933 1.57887 54.6276C0.382695 53.4314 0.382781 51.49 1.57881 50.2938L12.244 39.6287ZM3.95401 53.3353L3.95711 53.3353L3.97549 53.3353C3.99276 53.3353 4.01998 53.3351 4.05669 53.3347C4.1301 53.3338 4.24139 53.3317 4.38683 53.3271C4.6778 53.3178 5.10486 53.2982 5.63825 53.2567C6.70636 53.1737 8.19365 53.0037 9.86406 52.6566C13.2336 51.9564 17.213 50.563 20.052 47.8395L20.0719 47.8204L20.0928 47.8023C20.1359 47.7649 20.1813 47.7202 20.2577 47.6437C22.0482 45.8532 22.0449 42.9533 20.2584 41.1667C18.4717 39.3801 15.5725 39.3763 13.7821 41.1667L3.11701 51.8318C3.11698 51.8318 3.11703 51.8318 3.11701 51.8318C2.77027 52.1786 2.77032 52.7429 3.11694 53.0895C3.31484 53.2874 3.57486 53.3696 3.82967 53.3417L3.89166 53.335L3.95401 53.3353Z" fill="#003BE5"/>
<path fill-rule="evenodd" clip-rule="evenodd" d="M5.49956 53.5137C5.92425 53.0889 6.61287 53.0889 7.03764 53.5136L7.05011 53.526C7.47488 53.9507 7.47495 54.6393 7.05026 55.0641C6.62557 55.4889 5.93695 55.4889 5.51218 55.0643L5.49971 55.0518C5.07494 54.6271 5.07488 53.9385 5.49956 53.5137Z" fill="#003BE5"/>
<path fill-rule="evenodd" clip-rule="evenodd" d="M12.0497 48.2445C12.6439 48.1564 13.1969 48.5667 13.2849 49.1609C13.3967 49.9151 13.2208 50.7235 12.9014 51.464C12.5758 52.2189 12.0692 52.9798 11.4159 53.6674L11.4094 53.6743L11.4094 53.6743C11.0197 54.0774 10.5937 54.4509 10.1303 54.7499C9.62561 55.0755 8.95247 54.9303 8.62684 54.4256C8.30121 53.9209 8.4464 53.2477 8.95113 52.9221C9.23531 52.7388 9.5327 52.4856 9.84213 52.1659C10.3342 51.6471 10.6898 51.0993 10.9041 50.6026C11.125 50.0905 11.1664 49.7035 11.1333 49.4797C11.0452 48.8855 11.4555 48.3325 12.0497 48.2445Z" fill="#003BE5"/>
<path fill-rule="evenodd" clip-rule="evenodd" d="M7.31073 51.4304C7.90575 51.5125 8.32158 52.0614 8.23951 52.6564C8.10824 53.6081 7.64629 54.4915 6.90707 55.1299C6.45248 55.5225 5.76569 55.4723 5.37309 55.0177C4.98049 54.5631 5.03074 53.8763 5.48533 53.4837C5.80862 53.2045 6.02282 52.8081 6.08474 52.3592C6.16681 51.7642 6.7157 51.3483 7.31073 51.4304Z" fill="#003BE5"/>
<path fill-rule="evenodd" clip-rule="evenodd" d="M27.0789 12.7436C27.0322 12.6968 26.9563 12.6968 26.9095 12.7436L13.3354 26.3177C13.2886 26.3645 13.2886 26.4404 13.3354 26.4872L12.5664 27.2562L13.3354 26.4872L35.8084 48.9603C35.8552 49.0071 35.9311 49.0071 35.9779 48.9603L49.552 35.3861C49.5987 35.3393 49.5987 35.2634 49.552 35.2166L27.0789 12.7436ZM25.3714 11.2055C26.2676 10.3093 27.7208 10.3093 28.617 11.2055L51.0901 33.6786C51.9863 34.5748 51.9863 36.0279 51.0901 36.9242L37.5159 50.4984C36.6197 51.3946 35.1666 51.3946 34.2704 50.4984L11.7973 28.0252C10.9011 27.129 10.9011 25.6759 11.7973 24.7796L25.3714 11.2055Z" fill="#003BE5"/>
<path fill-rule="evenodd" clip-rule="evenodd" d="M53.7464 2.46001C53.3998 2.11337 52.8356 2.11328 52.4888 2.46013L41.8237 13.1252C40.0332 14.9157 40.037 17.8149 41.8237 19.6015C43.6102 21.3881 46.5094 21.392 48.2999 19.6016C48.2999 19.6016 48.2999 19.6017 48.2999 19.6016M53.9923 3.29661L53.9923 3.30017L53.9922 3.31855C53.9922 3.33583 53.992 3.36305 53.9916 3.39975C53.9907 3.47316 53.9886 3.58446 53.984 3.72989C53.9747 4.02086 53.9551 4.44793 53.9136 4.98132C53.8306 6.04942 53.6606 7.53671 53.3135 9.20713C52.6133 12.5767 51.22 16.556 48.4964 19.395L48.4773 19.415L48.4592 19.4358C48.4218 19.479 48.3777 19.5237 48.2999 19.6016M53.9923 3.29661L53.9919 3.23472L53.9987 3.17274C54.0265 2.91792 53.9443 2.65791 53.7464 2.46001M56.1673 3.34443C56.2432 2.48008 55.9503 1.58768 55.2845 0.92193C54.0883 -0.274252 52.1469 -0.274165 50.9507 0.922051L40.2856 11.5872C37.6444 14.2284 37.6507 18.5048 40.2856 21.1396C42.9203 23.7743 47.1968 23.7808 49.838 21.1396L49.85 21.1277C49.9116 21.066 49.9981 20.9794 50.0835 20.8826C53.2089 17.6141 54.7106 13.1749 55.4432 9.64968C55.8131 7.86946 55.9938 6.28793 56.0823 5.14989C56.1266 4.5802 56.1479 4.11985 56.1581 3.79918C56.1632 3.6388 56.1655 3.51321 56.1666 3.4262C56.167 3.3934 56.1672 3.36608 56.1673 3.34443Z" fill="#003BE5"/>
<path fill-rule="evenodd" clip-rule="evenodd" d="M54.1705 4.84275C54.5952 4.41803 55.2838 4.41803 55.7086 4.84275L55.721 4.85522C56.1457 5.27995 56.1457 5.96857 55.721 6.3933C55.2963 6.81803 54.6077 6.81803 54.1829 6.3933L54.1705 6.38083C53.7457 5.9561 53.7457 5.26748 54.1705 4.84275Z" fill="#003BE5"/>
<path fill-rule="evenodd" clip-rule="evenodd" d="M55.0823 7.97C55.5871 8.29563 55.7322 8.96878 55.4066 9.47351C55.1077 9.9369 54.7341 10.3628 54.331 10.7525L54.3242 10.7591L54.3242 10.7591C53.6365 11.4123 52.8756 11.9189 52.1208 12.2445C51.3802 12.564 50.5718 12.7398 49.8176 12.6281C49.2235 12.5401 48.8132 11.987 48.9012 11.3929C48.9892 10.7987 49.5422 10.3884 50.1364 10.4764C50.3603 10.5096 50.7472 10.4681 51.2593 10.2472C51.756 10.033 52.3039 9.6774 52.8226 9.1853C53.1423 8.87586 53.3955 8.57847 53.5788 8.29429C53.9045 7.78956 54.5776 7.64437 55.0823 7.97Z" fill="#003BE5"/>
<path fill-rule="evenodd" clip-rule="evenodd" d="M55.6745 4.71625C56.1291 5.10885 56.1793 5.79563 55.7867 6.25022C55.1483 6.98944 54.2649 7.45139 53.3132 7.58266C52.7182 7.66474 52.1693 7.24891 52.0872 6.65388C52.0051 6.05886 52.4209 5.50997 53.016 5.42789C53.4648 5.36598 53.8613 5.15178 54.1405 4.82849C54.5331 4.3739 55.2199 4.32364 55.6745 4.71625Z" fill="#003BE5"/>
</svg>
