<svg width="34" height="34" viewBox="0 0 34 34" fill="none" xmlns="http://www.w3.org/2000/svg">
<g filter="url(#filter0_d_6_203)">
<path d="M16.6242 0C13.2761 0 10.0651 1.33005 7.69756 3.69756C5.33005 6.06506 4 9.27609 4 12.6242C4.00045 13.0553 4.02386 13.4861 4.07013 13.9147C4.39835 17.0155 5.86249 19.8851 8.18044 21.9706C10.4984 24.0562 13.5062 25.2101 16.6242 25.2101C19.7423 25.2101 22.7501 24.0562 25.0681 21.9706C27.386 19.8851 28.8501 17.0155 29.1784 13.9147C29.2246 13.4861 29.248 13.0553 29.2485 12.6242C29.2485 9.27609 27.9184 6.06506 25.5509 3.69756C23.1834 1.33005 19.9724 0 16.6242 0V0ZM24.2268 18.8242C24.2128 18.8242 24.1427 18.9364 24.1287 18.9364C23.2104 20.0341 22.0625 20.917 20.7658 21.5229C19.4692 22.1287 18.0554 22.4427 16.6242 22.4427C15.1931 22.4427 13.7793 22.1287 12.4827 21.5229C11.186 20.917 10.0381 20.0341 9.11983 18.9364C9.10581 18.9364 9.03567 18.8242 9.02164 18.8242C8.94462 18.7124 8.90085 18.5811 8.8954 18.4454C8.89802 18.2983 8.94492 18.1553 9.02999 18.0352C9.11507 17.9151 9.23436 17.8234 9.37232 17.7721C10.4103 17.4215 11.4062 17.0848 11.6868 17.0147C11.6802 16.983 11.6806 16.9504 11.6879 16.9189C11.6952 16.8874 11.7091 16.8579 11.7288 16.8323C11.7656 16.6965 11.8432 16.5753 11.951 16.485C12.0589 16.3947 12.1919 16.3397 12.332 16.3274L14.1134 16.1871C14.0984 15.8038 14.0078 15.4272 13.8469 15.079V15.0649C13.6966 14.6687 13.4835 14.2993 13.2157 13.9708C12.4822 13.0139 12.0919 11.838 12.1076 10.6324C12.03 9.3926 12.4421 8.17187 13.2553 7.23278C14.0685 6.29368 15.2178 5.71126 16.4559 5.61078H16.7926C18.0307 5.71126 19.18 6.29368 19.9932 7.23278C20.8064 8.17187 21.2185 9.3926 21.1409 10.6324C21.1566 11.838 20.7663 13.0139 20.0328 13.9708C19.765 14.2993 19.5519 14.6687 19.4016 15.0649V15.079C19.2407 15.4272 19.1501 15.8038 19.1351 16.1871L20.9165 16.3274C21.0566 16.3397 21.1896 16.3947 21.2975 16.485C21.4053 16.5753 21.4829 16.6965 21.5196 16.8323C21.5394 16.8579 21.5533 16.8874 21.5606 16.9189C21.5679 16.9504 21.5682 16.983 21.5617 17.0147C21.8423 17.0848 22.8382 17.4215 23.8762 17.7721C23.979 17.8051 24.0726 17.8619 24.1494 17.9378C24.2262 18.0138 24.2841 18.1068 24.3182 18.2092C24.3524 18.3117 24.3619 18.4208 24.346 18.5276C24.3302 18.6345 24.2893 18.736 24.2268 18.8242Z" fill="#2FC18C"/>
</g>
<defs>
<filter id="filter0_d_6_203" x="0" y="0" width="33.2485" height="33.2101" filterUnits="userSpaceOnUse" color-interpolation-filters="sRGB">
<feFlood flood-opacity="0" result="BackgroundImageFix"/>
<feColorMatrix in="SourceAlpha" type="matrix" values="0 0 0 0 0 0 0 0 0 0 0 0 0 0 0 0 0 0 127 0" result="hardAlpha"/>
<feOffset dy="4"/>
<feGaussianBlur stdDeviation="2"/>
<feComposite in2="hardAlpha" operator="out"/>
<feColorMatrix type="matrix" values="0 0 0 0 0 0 0 0 0 0 0 0 0 0 0 0 0 0 0.25 0"/>
<feBlend mode="normal" in2="BackgroundImageFix" result="effect1_dropShadow_6_203"/>
<feBlend mode="normal" in="SourceGraphic" in2="effect1_dropShadow_6_203" result="shape"/>
</filter>
</defs>
</svg>
